<svg width="32" height="32" viewBox="0 0 32 32" fill="none" xmlns="http://www.w3.org/2000/svg">
  <!-- Background circle -->
  <circle cx="16" cy="16" r="16" fill="#3B82F6"/>
  
  <!-- Email envelope -->
  <rect x="6" y="10" width="20" height="14" rx="2" fill="white" stroke="none"/>
  <rect x="7" y="11" width="18" height="12" rx="1" fill="#3B82F6" stroke="none"/>
  
  <!-- Email content lines -->
  <rect x="9" y="14" width="8" height="1" fill="white" opacity="0.8"/>
  <rect x="9" y="16" width="12" height="1" fill="white" opacity="0.6"/>
  <rect x="9" y="18" width="6" height="1" fill="white" opacity="0.4"/>
  
  <!-- Security shield overlay -->
  <path d="M20 8L22 9V13C22 15.5 20.5 17.5 18.5 18.5L17 19L15.5 18.5C13.5 17.5 12 15.5 12 13V9L14 8L17 6L20 8Z" fill="#10B981" stroke="white" stroke-width="0.5"/>
  
  <!-- Shield checkmark -->
  <path d="M15 12L16.5 13.5L19 11" stroke="white" stroke-width="1.5" stroke-linecap="round" stroke-linejoin="round" fill="none"/>
</svg>
